<?xml version="1.0" encoding="UTF-8" standalone="yes"?><svg xmlns="http://www.w3.org/2000/svg" xmlns:xlink="http://www.w3.org/1999/xlink" height="276px" style="width:283px;height:276px;" version="1.1" viewBox="0 0 283 276" width="283px"><defs><filter height="300%" id="f1" width="300%" x="-1" y="-1"><feGaussianBlur result="blurOut" stdDeviation="2.0"/><feColorMatrix in="blurOut" result="blurOut2" type="matrix" values="0 0 0 0 0 0 0 0 0 0 0 0 0 0 0 0 0 0 .4 0"/><feOffset dx="4.0" dy="4.0" in="blurOut2" result="blurOut3"/><feBlend in="SourceGraphic" in2="blurOut3" mode="normal"/></filter></defs><g><rect fill="#FEFECE" filter="url(#f1)" height="48" style="stroke: #A80036; stroke-width: 1.5;" width="95" x="92.5" y="94"/><ellipse cx="107.5" cy="110" fill="#ADD1B2" rx="11" ry="11" style="stroke: #A80036; stroke-width: 1.0;"/><path d="M110.4731,115.6431 Q109.8921,115.9419 109.2529,116.0913 Q108.6138,116.2407 107.9082,116.2407 Q105.4014,116.2407 104.0815,114.5889 Q102.7617,112.937 102.7617,109.8159 Q102.7617,106.6865 104.0815,105.0347 Q105.4014,103.3828 107.9082,103.3828 Q108.6138,103.3828 109.2612,103.5322 Q109.9087,103.6816 110.4731,103.9805 L110.4731,106.7031 Q109.8423,106.1221 109.2488,105.8523 Q108.6553,105.5825 108.0244,105.5825 Q106.6797,105.5825 105.9949,106.6492 Q105.3101,107.7158 105.3101,109.8159 Q105.3101,111.9077 105.9949,112.9744 Q106.6797,114.041 108.0244,114.041 Q108.6553,114.041 109.2488,113.7712 Q109.8423,113.5015 110.4731,112.9204 Z "/><text fill="#000000" font-family="sans-serif" font-size="12" lengthAdjust="spacingAndGlyphs" textLength="63" x="121.5" y="114.5352">ClassRoom</text><line style="stroke: #A80036; stroke-width: 1.5;" x1="93.5" x2="186.5" y1="126" y2="126"/><line style="stroke: #A80036; stroke-width: 1.5;" x1="93.5" x2="186.5" y1="134" y2="134"/><polygon fill="#FBFB77" filter="url(#f1)" points="6,8,6,33.3105,274,33.3105,274,18,264,8,6,8" style="stroke: #A80036; stroke-width: 1.0;"/><polygon fill="#FBFB77" points="6,8,6,33.3105,136,33.3105,140,93.867,144,33.3105,274,33.3105,274,18,264,8,6,8" style="stroke: #A80036; stroke-width: 1.0;"/><line style="stroke: #A80036; stroke-width: 1.0;" x1="264" x2="264" y1="8" y2="18"/><line style="stroke: #A80036; stroke-width: 1.0;" x1="274" x2="264" y1="18" y2="18"/><text fill="#000000" font-family="sans-serif" font-size="13" lengthAdjust="spacingAndGlyphs" textLength="247" x="12" y="25.5684">聚合关系用一条带空心菱形箭头的直线表示</text><rect fill="#FEFECE" filter="url(#f1)" height="48" style="stroke: #A80036; stroke-width: 1.5;" width="75" x="102.5" y="219"/><ellipse cx="117.5" cy="235" fill="#ADD1B2" rx="11" ry="11" style="stroke: #A80036; stroke-width: 1.0;"/><path d="M120.4731,240.6431 Q119.8921,240.9419 119.2529,241.0913 Q118.6138,241.2407 117.9082,241.2407 Q115.4014,241.2407 114.0815,239.5889 Q112.7617,237.937 112.7617,234.8159 Q112.7617,231.6865 114.0815,230.0347 Q115.4014,228.3828 117.9082,228.3828 Q118.6138,228.3828 119.2612,228.5322 Q119.9087,228.6816 120.4731,228.9805 L120.4731,231.7031 Q119.8423,231.1221 119.2488,230.8523 Q118.6553,230.5825 118.0244,230.5825 Q116.6797,230.5825 115.9949,231.6492 Q115.3101,232.7158 115.3101,234.8159 Q115.3101,236.9077 115.9949,237.9744 Q116.6797,239.041 118.0244,239.041 Q118.6553,239.041 119.2488,238.7712 Q119.8423,238.5015 120.4731,237.9204 Z "/><text fill="#000000" font-family="sans-serif" font-size="12" lengthAdjust="spacingAndGlyphs" textLength="43" x="131.5" y="239.5352">Student</text><line style="stroke: #A80036; stroke-width: 1.5;" x1="103.5" x2="176.5" y1="251" y2="251"/><line style="stroke: #A80036; stroke-width: 1.5;" x1="103.5" x2="176.5" y1="259" y2="259"/><path d="M140,155.214 C140,175.8329 140,201.0433 140,218.9684 " fill="none" style="stroke: #A80036; stroke-width: 1.0;"/><polygon fill="#FFFFFF" points="140,142.135,136,148.135,140,154.135,144,148.135,140,142.135" style="stroke: #A80036; stroke-width: 1.0;"/><text fill="#000000" font-family="sans-serif" font-size="13" lengthAdjust="spacingAndGlyphs" textLength="109" x="141" y="185.5684">aggregation(聚合)</text></g></svg>