<?xml version="1.0" encoding="UTF-8" standalone="yes"?><svg xmlns="http://www.w3.org/2000/svg" xmlns:xlink="http://www.w3.org/1999/xlink" height="258px" style="width:257px;height:258px;" version="1.1" viewBox="0 0 257 258" width="257px"><defs><filter height="300%" id="f1" width="300%" x="-1" y="-1"><feGaussianBlur result="blurOut" stdDeviation="2.0"/><feColorMatrix in="blurOut" result="blurOut2" type="matrix" values="0 0 0 0 0 0 0 0 0 0 0 0 0 0 0 0 0 0 .4 0"/><feOffset dx="4.0" dy="4.0" in="blurOut2" result="blurOut3"/><feBlend in="SourceGraphic" in2="blurOut3" mode="normal"/></filter></defs><g><rect fill="#FEFECE" filter="url(#f1)" height="48" style="stroke: #A80036; stroke-width: 1.5;" width="52" x="101" y="93"/><ellipse cx="116" cy="109" fill="#ADD1B2" rx="11" ry="11" style="stroke: #A80036; stroke-width: 1.0;"/><path d="M118.9731,114.6431 Q118.3921,114.9419 117.7529,115.0913 Q117.1138,115.2407 116.4082,115.2407 Q113.9014,115.2407 112.5815,113.5889 Q111.2617,111.937 111.2617,108.8159 Q111.2617,105.6865 112.5815,104.0347 Q113.9014,102.3828 116.4082,102.3828 Q117.1138,102.3828 117.7612,102.5322 Q118.4087,102.6816 118.9731,102.9805 L118.9731,105.7031 Q118.3423,105.1221 117.7488,104.8523 Q117.1553,104.5825 116.5244,104.5825 Q115.1797,104.5825 114.4949,105.6492 Q113.8101,106.7158 113.8101,108.8159 Q113.8101,110.9077 114.4949,111.9744 Q115.1797,113.041 116.5244,113.041 Q117.1553,113.041 117.7488,112.7712 Q118.3423,112.5015 118.9731,111.9204 Z "/><text fill="#000000" font-family="sans-serif" font-size="12" lengthAdjust="spacingAndGlyphs" textLength="20" x="130" y="113.5352">Car</text><line style="stroke: #A80036; stroke-width: 1.5;" x1="102" x2="152" y1="125" y2="125"/><line style="stroke: #A80036; stroke-width: 1.5;" x1="102" x2="152" y1="133" y2="133"/><rect fill="#FEFECE" filter="url(#f1)" height="48" style="stroke: #A80036; stroke-width: 1.5;" width="54" x="100" y="201"/><ellipse cx="115" cy="217" fill="#ADD1B2" rx="11" ry="11" style="stroke: #A80036; stroke-width: 1.0;"/><path d="M117.9731,222.6431 Q117.3921,222.9419 116.7529,223.0913 Q116.1138,223.2407 115.4082,223.2407 Q112.9014,223.2407 111.5815,221.5889 Q110.2617,219.937 110.2617,216.8159 Q110.2617,213.6865 111.5815,212.0347 Q112.9014,210.3828 115.4082,210.3828 Q116.1138,210.3828 116.7612,210.5322 Q117.4087,210.6816 117.9731,210.9805 L117.9731,213.7031 Q117.3423,213.1221 116.7488,212.8523 Q116.1553,212.5825 115.5244,212.5825 Q114.1797,212.5825 113.4949,213.6492 Q112.8101,214.7158 112.8101,216.8159 Q112.8101,218.9077 113.4949,219.9744 Q114.1797,221.041 115.5244,221.041 Q116.1553,221.041 116.7488,220.7712 Q117.3423,220.5015 117.9731,219.9204 Z "/><text fill="#000000" font-family="sans-serif" font-size="12" lengthAdjust="spacingAndGlyphs" textLength="22" x="129" y="221.5352">SUV</text><line style="stroke: #A80036; stroke-width: 1.5;" x1="101" x2="153" y1="233" y2="233"/><line style="stroke: #A80036; stroke-width: 1.5;" x1="101" x2="153" y1="241" y2="241"/><polygon fill="#FBFB77" filter="url(#f1)" points="6,8,6,33.3105,248,33.3105,248,18,238,8,6,8" style="stroke: #A80036; stroke-width: 1.0;"/><polygon fill="#FBFB77" points="6,8,6,33.3105,123,33.3105,127,92.731,131,33.3105,248,33.3105,248,18,238,8,6,8" style="stroke: #A80036; stroke-width: 1.0;"/><line style="stroke: #A80036; stroke-width: 1.0;" x1="238" x2="238" y1="8" y2="18"/><line style="stroke: #A80036; stroke-width: 1.0;" x1="248" x2="238" y1="18" y2="18"/><text fill="#000000" font-family="sans-serif" font-size="13" lengthAdjust="spacingAndGlyphs" textLength="221" x="12" y="25.5684">继承关系用一条带空心箭头的直线表示</text><path d="M127,161.0236 C127,174.5792 127,189.0381 127,200.6784 " fill="none" style="stroke: #A80036; stroke-width: 1.0;"/><polygon fill="none" points="120,161.0005,127,141,134,161.0004,120,161.0005" style="stroke: #A80036; stroke-width: 1.0;"/></g></svg>