<?xml version="1.0" encoding="UTF-8" standalone="yes"?><svg xmlns="http://www.w3.org/2000/svg" xmlns:xlink="http://www.w3.org/1999/xlink" height="258px" style="width:257px;height:258px;" version="1.1" viewBox="0 0 257 258" width="257px"><defs><filter height="300%" id="f1" width="300%" x="-1" y="-1"><feGaussianBlur result="blurOut" stdDeviation="2.0"/><feColorMatrix in="blurOut" result="blurOut2" type="matrix" values="0 0 0 0 0 0 0 0 0 0 0 0 0 0 0 0 0 0 .4 0"/><feOffset dx="4.0" dy="4.0" in="blurOut2" result="blurOut3"/><feBlend in="SourceGraphic" in2="blurOut3" mode="normal"/></filter></defs><g><rect fill="#FEFECE" filter="url(#f1)" height="48" style="stroke: #A80036; stroke-width: 1.5;" width="55" x="99.5" y="93"/><ellipse cx="114.5" cy="109" fill="#B4A7E5" rx="11" ry="11" style="stroke: #A80036; stroke-width: 1.0;"/><path d="M110.4277,104.7651 L110.4277,102.6069 L117.8071,102.6069 L117.8071,104.7651 L115.3418,104.7651 L115.3418,112.8418 L117.8071,112.8418 L117.8071,115 L110.4277,115 L110.4277,112.8418 L112.8931,112.8418 L112.8931,104.7651 Z "/><text fill="#000000" font-family="sans-serif" font-size="12" font-style="italic" lengthAdjust="spacingAndGlyphs" textLength="23" x="128.5" y="113.5352">Bird</text><line style="stroke: #A80036; stroke-width: 1.5;" x1="100.5" x2="153.5" y1="125" y2="125"/><line style="stroke: #A80036; stroke-width: 1.5;" x1="100.5" x2="153.5" y1="133" y2="133"/><rect fill="#FEFECE" filter="url(#f1)" height="48" style="stroke: #A80036; stroke-width: 1.5;" width="72" x="91" y="201"/><ellipse cx="106" cy="217" fill="#ADD1B2" rx="11" ry="11" style="stroke: #A80036; stroke-width: 1.0;"/><path d="M108.9731,222.6431 Q108.3921,222.9419 107.7529,223.0913 Q107.1138,223.2407 106.4082,223.2407 Q103.9014,223.2407 102.5815,221.5889 Q101.2617,219.937 101.2617,216.8159 Q101.2617,213.6865 102.5815,212.0347 Q103.9014,210.3828 106.4082,210.3828 Q107.1138,210.3828 107.7612,210.5322 Q108.4087,210.6816 108.9731,210.9805 L108.9731,213.7031 Q108.3423,213.1221 107.7488,212.8523 Q107.1553,212.5825 106.5244,212.5825 Q105.1797,212.5825 104.4949,213.6492 Q103.8101,214.7158 103.8101,216.8159 Q103.8101,218.9077 104.4949,219.9744 Q105.1797,221.041 106.5244,221.041 Q107.1553,221.041 107.7488,220.7712 Q108.3423,220.5015 108.9731,219.9204 Z "/><text fill="#000000" font-family="sans-serif" font-size="12" lengthAdjust="spacingAndGlyphs" textLength="40" x="120" y="221.5352">Parrow</text><line style="stroke: #A80036; stroke-width: 1.5;" x1="92" x2="162" y1="233" y2="233"/><line style="stroke: #A80036; stroke-width: 1.5;" x1="92" x2="162" y1="241" y2="241"/><polygon fill="#FBFB77" filter="url(#f1)" points="6,8,6,33.3105,248,33.3105,248,18,238,8,6,8" style="stroke: #A80036; stroke-width: 1.0;"/><polygon fill="#FBFB77" points="6,8,6,33.3105,123,33.3105,127,92.731,131,33.3105,248,33.3105,248,18,238,8,6,8" style="stroke: #A80036; stroke-width: 1.0;"/><line style="stroke: #A80036; stroke-width: 1.0;" x1="238" x2="238" y1="8" y2="18"/><line style="stroke: #A80036; stroke-width: 1.0;" x1="248" x2="238" y1="18" y2="18"/><text fill="#000000" font-family="sans-serif" font-size="13" lengthAdjust="spacingAndGlyphs" textLength="221" x="12" y="25.5684">实现关系用一条带空心箭头的虚线表示</text><path d="M127,161.0236 C127,174.5792 127,189.0381 127,200.6784 " fill="none" style="stroke: #A80036; stroke-width: 1.0; stroke-dasharray: 7.0,7.0;"/><polygon fill="none" points="120,161.0005,127,141,134,161.0004,120,161.0005" style="stroke: #A80036; stroke-width: 1.0;"/></g></svg>