<?xml version="1.0" encoding="UTF-8" standalone="yes"?><svg xmlns="http://www.w3.org/2000/svg" xmlns:xlink="http://www.w3.org/1999/xlink" height="294px" style="width:237px;height:294px;" version="1.1" viewBox="0 0 237 294" width="237px"><defs><filter height="300%" id="f1" width="300%" x="-1" y="-1"><feGaussianBlur result="blurOut" stdDeviation="2.0"/><feColorMatrix in="blurOut" result="blurOut2" type="matrix" values="0 0 0 0 0 0 0 0 0 0 0 0 0 0 0 0 0 0 .4 0"/><feOffset dx="4.0" dy="4.0" in="blurOut2" result="blurOut3"/><feBlend in="SourceGraphic" in2="blurOut3" mode="normal"/></filter></defs><g><rect fill="#FEFECE" filter="url(#f1)" height="48" style="stroke: #A80036; stroke-width: 1.5;" width="86" x="74" y="129"/><ellipse cx="89" cy="145" fill="#A9DCDF" rx="11" ry="11" style="stroke: #A80036; stroke-width: 1.0;"/><path d="M89.1133,140.3481 L87.9595,145.4199 L90.2754,145.4199 Z M87.6191,138.1069 L90.6157,138.1069 L93.9609,150.5 L91.5122,150.5 L90.7485,147.437 L87.4697,147.437 L86.7227,150.5 L84.2739,150.5 Z "/><text fill="#000000" font-family="sans-serif" font-size="12" font-style="italic" lengthAdjust="spacingAndGlyphs" textLength="54" x="103" y="149.5352">Hamburg</text><line style="stroke: #A80036; stroke-width: 1.5;" x1="75" x2="159" y1="161" y2="161"/><line style="stroke: #A80036; stroke-width: 1.5;" x1="75" x2="159" y1="169" y2="169"/><rect fill="#FEFECE" filter="url(#f1)" height="60.9551" style="stroke: #A80036; stroke-width: 1.5;" width="191" x="21.5" y="8"/><ellipse cx="65.3" cy="24" fill="#ADD1B2" rx="11" ry="11" style="stroke: #A80036; stroke-width: 1.0;"/><path d="M68.2731,29.6431 Q67.6921,29.9419 67.0529,30.0913 Q66.4138,30.2407 65.7082,30.2407 Q63.2014,30.2407 61.8815,28.5889 Q60.5617,26.937 60.5617,23.8159 Q60.5617,20.6865 61.8815,19.0347 Q63.2014,17.3828 65.7082,17.3828 Q66.4138,17.3828 67.0612,17.5322 Q67.7087,17.6816 68.2731,17.9805 L68.2731,20.7031 Q67.6423,20.1221 67.0488,19.8523 Q66.4553,19.5825 65.8244,19.5825 Q64.4797,19.5825 63.7949,20.6492 Q63.1101,21.7158 63.1101,23.8159 Q63.1101,25.9077 63.7949,26.9744 Q64.4797,28.041 65.8244,28.041 Q66.4553,28.041 67.0488,27.7712 Q67.6423,27.5015 68.2731,26.9204 Z "/><text fill="#000000" font-family="sans-serif" font-size="12" lengthAdjust="spacingAndGlyphs" textLength="95" x="85.7" y="28.5352">HamburgFactory</text><line style="stroke: #A80036; stroke-width: 1.5;" x1="22.5" x2="211.5" y1="40" y2="40"/><line style="stroke: #A80036; stroke-width: 1.5;" x1="22.5" x2="211.5" y1="48" y2="48"/><text fill="#000000" font-family="sans-serif" font-size="11" lengthAdjust="spacingAndGlyphs" textLength="179" x="27.5" y="62.6348">createHamburg(String): Hamburg</text><rect fill="#FEFECE" filter="url(#f1)" height="48" style="stroke: #A80036; stroke-width: 1.5;" width="94" x="6" y="237"/><ellipse cx="21" cy="253" fill="#ADD1B2" rx="11" ry="11" style="stroke: #A80036; stroke-width: 1.0;"/><path d="M23.9731,258.6431 Q23.3921,258.9419 22.7529,259.0913 Q22.1138,259.2407 21.4082,259.2407 Q18.9014,259.2407 17.5815,257.5889 Q16.2617,255.937 16.2617,252.8159 Q16.2617,249.6865 17.5815,248.0347 Q18.9014,246.3828 21.4082,246.3828 Q22.1138,246.3828 22.7612,246.5322 Q23.4087,246.6816 23.9731,246.9805 L23.9731,249.7031 Q23.3423,249.1221 22.7488,248.8523 Q22.1553,248.5825 21.5244,248.5825 Q20.1797,248.5825 19.4949,249.6492 Q18.8101,250.7158 18.8101,252.8159 Q18.8101,254.9077 19.4949,255.9744 Q20.1797,257.041 21.5244,257.041 Q22.1553,257.041 22.7488,256.7712 Q23.3423,256.5015 23.9731,255.9204 Z "/><text fill="#000000" font-family="sans-serif" font-size="12" lengthAdjust="spacingAndGlyphs" textLength="62" x="35" y="257.5352">HamburgA</text><line style="stroke: #A80036; stroke-width: 1.5;" x1="7" x2="99" y1="269" y2="269"/><line style="stroke: #A80036; stroke-width: 1.5;" x1="7" x2="99" y1="277" y2="277"/><rect fill="#FEFECE" filter="url(#f1)" height="48" style="stroke: #A80036; stroke-width: 1.5;" width="93" x="135.5" y="237"/><ellipse cx="150.5" cy="253" fill="#ADD1B2" rx="11" ry="11" style="stroke: #A80036; stroke-width: 1.0;"/><path d="M153.4731,258.6431 Q152.8921,258.9419 152.2529,259.0913 Q151.6138,259.2407 150.9082,259.2407 Q148.4014,259.2407 147.0815,257.5889 Q145.7617,255.937 145.7617,252.8159 Q145.7617,249.6865 147.0815,248.0347 Q148.4014,246.3828 150.9082,246.3828 Q151.6138,246.3828 152.2612,246.5322 Q152.9087,246.6816 153.4731,246.9805 L153.4731,249.7031 Q152.8423,249.1221 152.2488,248.8523 Q151.6553,248.5825 151.0244,248.5825 Q149.6797,248.5825 148.9949,249.6492 Q148.3101,250.7158 148.3101,252.8159 Q148.3101,254.9077 148.9949,255.9744 Q149.6797,257.041 151.0244,257.041 Q151.6553,257.041 152.2488,256.7712 Q152.8423,256.5015 153.4731,255.9204 Z "/><text fill="#000000" font-family="sans-serif" font-size="12" lengthAdjust="spacingAndGlyphs" textLength="61" x="164.5" y="257.5352">HamburgB</text><line style="stroke: #A80036; stroke-width: 1.5;" x1="136.5" x2="227.5" y1="269" y2="269"/><line style="stroke: #A80036; stroke-width: 1.5;" x1="136.5" x2="227.5" y1="277" y2="277"/><path d="M92.7681,194.134 C84.0948,208.4992 74.6111,224.2066 67.081,236.6784 " fill="none" style="stroke: #A80036; stroke-width: 1.0; stroke-dasharray: 7.0,7.0;"/><polygon fill="none" points="86.7831,190.5036,103.113,177,98.768,197.7398,86.7831,190.5036" style="stroke: #A80036; stroke-width: 1.0;"/><path d="M141.61,194.134 C150.419,208.4992 160.051,224.2066 167.699,236.6784 " fill="none" style="stroke: #A80036; stroke-width: 1.0; stroke-dasharray: 7.0,7.0;"/><polygon fill="none" points="135.592,197.7094,131.104,177,147.526,190.3909,135.592,197.7094" style="stroke: #A80036; stroke-width: 1.0;"/><path d="M117,69.058 C117,85.931 117,106.976 117,123.645 " fill="none" style="stroke: #A80036; stroke-width: 1.0; stroke-dasharray: 7.0,7.0;"/><polygon fill="#A80036" points="117,128.669,121,119.669,117,123.669,113,119.669,117,128.669" style="stroke: #A80036; stroke-width: 1.0;"/></g></svg>