<?xml version="1.0" encoding="UTF-8" standalone="yes"?><svg xmlns="http://www.w3.org/2000/svg" xmlns:xlink="http://www.w3.org/1999/xlink" height="337px" style="width:799px;height:337px;" version="1.1" viewBox="0 0 799 337" width="799px"><defs><filter height="300%" id="f1" width="300%" x="-1" y="-1"><feGaussianBlur result="blurOut" stdDeviation="2.0"/><feColorMatrix in="blurOut" result="blurOut2" type="matrix" values="0 0 0 0 0 0 0 0 0 0 0 0 0 0 0 0 0 0 .4 0"/><feOffset dx="4.0" dy="4.0" in="blurOut2" result="blurOut3"/><feBlend in="SourceGraphic" in2="blurOut3" mode="normal"/></filter></defs><g><rect fill="#FEFECE" filter="url(#f1)" height="60.9551" style="stroke: #A80036; stroke-width: 1.5;" width="107" x="328" y="8"/><ellipse cx="356.05" cy="24" fill="#A9DCDF" rx="11" ry="11" style="stroke: #A80036; stroke-width: 1.0;"/><path d="M356.1633,19.3481 L355.0095,24.4199 L357.3254,24.4199 Z M354.6691,17.1069 L357.6657,17.1069 L361.0109,29.5 L358.5622,29.5 L357.7985,26.437 L354.5197,26.437 L353.7727,29.5 L351.3239,29.5 Z "/><text fill="#000000" font-family="sans-serif" font-size="12" font-style="italic" lengthAdjust="spacingAndGlyphs" textLength="46" x="372.95" y="28.5352">Protocol</text><line style="stroke: #A80036; stroke-width: 1.5;" x1="329" x2="434" y1="40" y2="40"/><line style="stroke: #A80036; stroke-width: 1.5;" x1="329" x2="434" y1="48" y2="48"/><text fill="#000000" font-family="sans-serif" font-size="11" lengthAdjust="spacingAndGlyphs" textLength="95" x="334" y="62.6348">performRequest()</text><rect fill="#FEFECE" filter="url(#f1)" height="48" style="stroke: #A80036; stroke-width: 1.5;" width="101" x="6" y="136.5"/><ellipse cx="21" cy="152.5" fill="#ADD1B2" rx="11" ry="11" style="stroke: #A80036; stroke-width: 1.0;"/><path d="M23.9731,158.1431 Q23.3921,158.4419 22.7529,158.5913 Q22.1138,158.7407 21.4082,158.7407 Q18.9014,158.7407 17.5815,157.0889 Q16.2617,155.437 16.2617,152.3159 Q16.2617,149.1865 17.5815,147.5347 Q18.9014,145.8828 21.4082,145.8828 Q22.1138,145.8828 22.7612,146.0322 Q23.4087,146.1816 23.9731,146.4805 L23.9731,149.2031 Q23.3423,148.6221 22.7488,148.3523 Q22.1553,148.0825 21.5244,148.0825 Q20.1797,148.0825 19.4949,149.1492 Q18.8101,150.2158 18.8101,152.3159 Q18.8101,154.4077 19.4949,155.4744 Q20.1797,156.541 21.5244,156.541 Q22.1553,156.541 22.7488,156.2712 Q23.3423,156.0015 23.9731,155.4204 Z "/><text fill="#000000" font-family="sans-serif" font-size="12" lengthAdjust="spacingAndGlyphs" textLength="69" x="35" y="157.0352">TCPProtocol</text><line style="stroke: #A80036; stroke-width: 1.5;" x1="7" x2="106" y1="168.5" y2="168.5"/><line style="stroke: #A80036; stroke-width: 1.5;" x1="7" x2="106" y1="176.5" y2="176.5"/><rect fill="#FEFECE" filter="url(#f1)" height="48" style="stroke: #A80036; stroke-width: 1.5;" width="110" x="326.5" y="136.5"/><ellipse cx="341.5" cy="152.5" fill="#ADD1B2" rx="11" ry="11" style="stroke: #A80036; stroke-width: 1.0;"/><path d="M344.4731,158.1431 Q343.8921,158.4419 343.2529,158.5913 Q342.6138,158.7407 341.9082,158.7407 Q339.4014,158.7407 338.0815,157.0889 Q336.7617,155.437 336.7617,152.3159 Q336.7617,149.1865 338.0815,147.5347 Q339.4014,145.8828 341.9082,145.8828 Q342.6138,145.8828 343.2612,146.0322 Q343.9087,146.1816 344.4731,146.4805 L344.4731,149.2031 Q343.8423,148.6221 343.2488,148.3523 Q342.6553,148.0825 342.0244,148.0825 Q340.6797,148.0825 339.9949,149.1492 Q339.3101,150.2158 339.3101,152.3159 Q339.3101,154.4077 339.9949,155.4744 Q340.6797,156.541 342.0244,156.541 Q342.6553,156.541 343.2488,156.2712 Q343.8423,156.0015 344.4731,155.4204 Z "/><text fill="#000000" font-family="sans-serif" font-size="12" lengthAdjust="spacingAndGlyphs" textLength="78" x="355.5" y="157.0352">HTTPProtocol</text><line style="stroke: #A80036; stroke-width: 1.5;" x1="327.5" x2="435.5" y1="168.5" y2="168.5"/><line style="stroke: #A80036; stroke-width: 1.5;" x1="327.5" x2="435.5" y1="176.5" y2="176.5"/><rect fill="#FEFECE" filter="url(#f1)" height="48" style="stroke: #A80036; stroke-width: 1.5;" width="102" x="688.5" y="136.5"/><ellipse cx="703.5" cy="152.5" fill="#ADD1B2" rx="11" ry="11" style="stroke: #A80036; stroke-width: 1.0;"/><path d="M706.4731,158.1431 Q705.8921,158.4419 705.2529,158.5913 Q704.6138,158.7407 703.9082,158.7407 Q701.4014,158.7407 700.0815,157.0889 Q698.7617,155.437 698.7617,152.3159 Q698.7617,149.1865 700.0815,147.5347 Q701.4014,145.8828 703.9082,145.8828 Q704.6138,145.8828 705.2612,146.0322 Q705.9087,146.1816 706.4731,146.4805 L706.4731,149.2031 Q705.8423,148.6221 705.2488,148.3523 Q704.6553,148.0825 704.0244,148.0825 Q702.6797,148.0825 701.9949,149.1492 Q701.3101,150.2158 701.3101,152.3159 Q701.3101,154.4077 701.9949,155.4744 Q702.6797,156.541 704.0244,156.541 Q704.6553,156.541 705.2488,156.2712 Q705.8423,156.0015 706.4731,155.4204 Z "/><text fill="#000000" font-family="sans-serif" font-size="12" lengthAdjust="spacingAndGlyphs" textLength="70" x="717.5" y="157.0352">UDPProtocol</text><line style="stroke: #A80036; stroke-width: 1.5;" x1="689.5" x2="789.5" y1="168.5" y2="168.5"/><line style="stroke: #A80036; stroke-width: 1.5;" x1="689.5" x2="789.5" y1="176.5" y2="176.5"/><rect fill="#FEFECE" filter="url(#f1)" height="60.9551" style="stroke: #A80036; stroke-width: 1.5;" width="149" x="142" y="130"/><ellipse cx="170.5" cy="146" fill="#A9DCDF" rx="11" ry="11" style="stroke: #A80036; stroke-width: 1.0;"/><path d="M170.6133,141.3481 L169.4595,146.4199 L171.7754,146.4199 Z M169.1191,139.1069 L172.1157,139.1069 L175.4609,151.5 L173.0122,151.5 L172.2485,148.437 L168.9697,148.437 L168.2227,151.5 L165.7739,151.5 Z "/><text fill="#000000" font-family="sans-serif" font-size="12" font-style="italic" lengthAdjust="spacingAndGlyphs" textLength="87" x="187.5" y="150.5352">ProtocolFactory</text><line style="stroke: #A80036; stroke-width: 1.5;" x1="143" x2="290" y1="162" y2="162"/><line style="stroke: #A80036; stroke-width: 1.5;" x1="143" x2="290" y1="170" y2="170"/><text fill="#000000" font-family="sans-serif" font-size="11" lengthAdjust="spacingAndGlyphs" textLength="137" x="148" y="184.6348">createProtocol(): Protocol</text><rect fill="#FEFECE" filter="url(#f1)" height="60.9551" style="stroke: #A80036; stroke-width: 1.5;" width="170" x="40.5" y="268"/><ellipse cx="89.25" cy="284" fill="#ADD1B2" rx="11" ry="11" style="stroke: #A80036; stroke-width: 1.0;"/><path d="M92.2231,289.6431 Q91.6421,289.9419 91.0029,290.0913 Q90.3638,290.2407 89.6582,290.2407 Q87.1514,290.2407 85.8315,288.5889 Q84.5117,286.937 84.5117,283.8159 Q84.5117,280.6865 85.8315,279.0347 Q87.1514,277.3828 89.6582,277.3828 Q90.3638,277.3828 91.0112,277.5322 Q91.6587,277.6816 92.2231,277.9805 L92.2231,280.7031 Q91.5923,280.1221 90.9988,279.8523 Q90.4053,279.5825 89.7744,279.5825 Q88.4297,279.5825 87.7449,280.6492 Q87.0601,281.7158 87.0601,283.8159 Q87.0601,285.9077 87.7449,286.9744 Q88.4297,288.041 89.7744,288.041 Q90.4053,288.041 90.9988,287.7712 Q91.5923,287.5015 92.2231,286.9204 Z "/><text fill="#000000" font-family="sans-serif" font-size="12" lengthAdjust="spacingAndGlyphs" textLength="64" x="109.75" y="288.5352">TCPFactory</text><line style="stroke: #A80036; stroke-width: 1.5;" x1="41.5" x2="209.5" y1="300" y2="300"/><line style="stroke: #A80036; stroke-width: 1.5;" x1="41.5" x2="209.5" y1="308" y2="308"/><text fill="#000000" font-family="sans-serif" font-size="11" lengthAdjust="spacingAndGlyphs" textLength="158" x="46.5" y="322.6348">createProtocol(): TCPProtocol</text><rect fill="#FEFECE" filter="url(#f1)" height="60.9551" style="stroke: #A80036; stroke-width: 1.5;" width="171" x="477" y="268"/><ellipse cx="525.75" cy="284" fill="#ADD1B2" rx="11" ry="11" style="stroke: #A80036; stroke-width: 1.0;"/><path d="M528.7231,289.6431 Q528.1421,289.9419 527.5029,290.0913 Q526.8638,290.2407 526.1582,290.2407 Q523.6514,290.2407 522.3315,288.5889 Q521.0117,286.937 521.0117,283.8159 Q521.0117,280.6865 522.3315,279.0347 Q523.6514,277.3828 526.1582,277.3828 Q526.8638,277.3828 527.5112,277.5322 Q528.1587,277.6816 528.7231,277.9805 L528.7231,280.7031 Q528.0923,280.1221 527.4988,279.8523 Q526.9053,279.5825 526.2744,279.5825 Q524.9297,279.5825 524.2449,280.6492 Q523.5601,281.7158 523.5601,283.8159 Q523.5601,285.9077 524.2449,286.9744 Q524.9297,288.041 526.2744,288.041 Q526.9053,288.041 527.4988,287.7712 Q528.0923,287.5015 528.7231,286.9204 Z "/><text fill="#000000" font-family="sans-serif" font-size="12" lengthAdjust="spacingAndGlyphs" textLength="65" x="546.25" y="288.5352">UDPFactory</text><line style="stroke: #A80036; stroke-width: 1.5;" x1="478" x2="647" y1="300" y2="300"/><line style="stroke: #A80036; stroke-width: 1.5;" x1="478" x2="647" y1="308" y2="308"/><text fill="#000000" font-family="sans-serif" font-size="11" lengthAdjust="spacingAndGlyphs" textLength="159" x="483" y="322.6348">createProtocol(): UDPProtocol</text><polygon fill="#FBFB77" filter="url(#f1)" points="471.5,148,471.5,173.3105,653.5,173.3105,653.5,158,643.5,148,471.5,148" style="stroke: #A80036; stroke-width: 1.0;"/><polygon fill="#FBFB77" points="471.5,148,471.5,173.3105,558.5,173.3105,562.5,267.9167,566.5,173.3105,653.5,173.3105,653.5,158,643.5,148,471.5,148" style="stroke: #A80036; stroke-width: 1.0;"/><line style="stroke: #A80036; stroke-width: 1.0;" x1="643.5" x2="643.5" y1="148" y2="158"/><line style="stroke: #A80036; stroke-width: 1.0;" x1="653.5" x2="643.5" y1="158" y2="158"/><text fill="#000000" font-family="sans-serif" font-size="13" lengthAdjust="spacingAndGlyphs" textLength="161" x="477.5" y="165.5684">return new UDPProtocol();</text><rect fill="#FEFECE" filter="url(#f1)" height="60.9551" style="stroke: #A80036; stroke-width: 1.5;" width="177" x="259" y="268"/><ellipse cx="306.75" cy="284" fill="#ADD1B2" rx="11" ry="11" style="stroke: #A80036; stroke-width: 1.0;"/><path d="M309.7231,289.6431 Q309.1421,289.9419 308.5029,290.0913 Q307.8638,290.2407 307.1582,290.2407 Q304.6514,290.2407 303.3315,288.5889 Q302.0117,286.937 302.0117,283.8159 Q302.0117,280.6865 303.3315,279.0347 Q304.6514,277.3828 307.1582,277.3828 Q307.8638,277.3828 308.5112,277.5322 Q309.1587,277.6816 309.7231,277.9805 L309.7231,280.7031 Q309.0923,280.1221 308.4988,279.8523 Q307.9053,279.5825 307.2744,279.5825 Q305.9297,279.5825 305.2449,280.6492 Q304.5601,281.7158 304.5601,283.8159 Q304.5601,285.9077 305.2449,286.9744 Q305.9297,288.041 307.2744,288.041 Q307.9053,288.041 308.4988,287.7712 Q309.0923,287.5015 309.7231,286.9204 Z "/><text fill="#000000" font-family="sans-serif" font-size="12" lengthAdjust="spacingAndGlyphs" textLength="73" x="327.25" y="288.5352">HTTPFactory</text><line style="stroke: #A80036; stroke-width: 1.5;" x1="260" x2="435" y1="300" y2="300"/><line style="stroke: #A80036; stroke-width: 1.5;" x1="260" x2="435" y1="308" y2="308"/><text fill="#000000" font-family="sans-serif" font-size="11" lengthAdjust="spacingAndGlyphs" textLength="165" x="265" y="322.6348">createProtocol(): HTTPProtocol</text><path d="M308.761,63.582 C257.02,81.084 186.057,105.844 124.5,130 C118.87,132.209 113.015,134.602 107.207,137.036 " fill="none" style="stroke: #A80036; stroke-width: 1.0;"/><polygon fill="none" points="306.748,56.874,327.936,57.13,311.213,70.143,306.748,56.874" style="stroke: #A80036; stroke-width: 1.0;"/><path d="M381.5,89.2 C381.5,105.483 381.5,122.81 381.5,136.187 " fill="none" style="stroke: #A80036; stroke-width: 1.0;"/><polygon fill="none" points="374.5,89.163,381.5,69.163,388.5,89.163,374.5,89.163" style="stroke: #A80036; stroke-width: 1.0;"/><path d="M454.63,59.97 C513.709,77.068 598.706,102.94 671.5,130 C677.049,132.063 682.799,134.336 688.499,136.679 " fill="none" style="stroke: #A80036; stroke-width: 1.0;"/><polygon fill="none" points="452.552,66.656,435.26,54.41,456.415,53.2,452.552,66.656" style="stroke: #A80036; stroke-width: 1.0;"/><path d="M185.505,207.822 C172.285,227.58 157.239,250.0652 145.521,267.578 " fill="none" style="stroke: #A80036; stroke-width: 1.0;"/><polygon fill="none" points="179.814,203.739,196.754,191.01,191.45,211.525,179.814,203.739" style="stroke: #A80036; stroke-width: 1.0;"/><path d="M281.076,201.281 C303.741,214.161 329.734,227.751 354.5,238 C366.365,242.9103 424.906,259.5529 476.871,273.9922 " fill="none" style="stroke: #A80036; stroke-width: 1.0;"/><polygon fill="none" points="277.474,207.284,263.7,191.182,284.509,195.18,277.474,207.284" style="stroke: #A80036; stroke-width: 1.0;"/><path d="M256.57,206.148 C266.255,216.7 276.654,227.835 286.5,238 C296.072,247.8825 306.74,258.4372 316.444,267.8714 " fill="none" style="stroke: #A80036; stroke-width: 1.0;"/><polygon fill="none" points="251.329,210.789,243.04,191.288,261.681,201.364,251.329,210.789" style="stroke: #A80036; stroke-width: 1.0;"/><path d="M68.2049,184.571 C79.8166,207.457 97.664,242.6348 110.351,267.6411 " fill="none" style="stroke: #A80036; stroke-width: 1.0; stroke-dasharray: 7.0,7.0;"/><text fill="#000000" font-family="sans-serif" font-size="13" lengthAdjust="spacingAndGlyphs" textLength="38" x="96.5" y="234.5684">create</text><path d="M375.732,184.571 C370.011,207.457 361.216,242.6348 354.965,267.6411 " fill="none" style="stroke: #A80036; stroke-width: 1.0; stroke-dasharray: 7.0,7.0;"/><text fill="#000000" font-family="sans-serif" font-size="13" lengthAdjust="spacingAndGlyphs" textLength="38" x="368.5" y="234.5684">create</text><path d="M709.474,184.571 C679.589,207.533 633.602,242.8679 601.038,267.8892 " fill="none" style="stroke: #A80036; stroke-width: 1.0; stroke-dasharray: 7.0,7.0;"/><text fill="#000000" font-family="sans-serif" font-size="13" lengthAdjust="spacingAndGlyphs" textLength="38" x="663.5" y="234.5684">create</text></g></svg>