<?xml version="1.0" encoding="UTF-8" standalone="yes"?><svg xmlns="http://www.w3.org/2000/svg" xmlns:xlink="http://www.w3.org/1999/xlink" height="325px" style="width:571px;height:325px;" version="1.1" viewBox="0 0 571 325" width="571px"><defs><filter height="300%" id="f1" width="300%" x="-1" y="-1"><feGaussianBlur result="blurOut" stdDeviation="2.0"/><feColorMatrix in="blurOut" result="blurOut2" type="matrix" values="0 0 0 0 0 0 0 0 0 0 0 0 0 0 0 0 0 0 .4 0"/><feOffset dx="4.0" dy="4.0" in="blurOut2" result="blurOut3"/><feBlend in="SourceGraphic" in2="blurOut3" mode="normal"/></filter></defs><g><rect fill="#FEFECE" filter="url(#f1)" height="73.9102" style="stroke: #A80036; stroke-width: 1.5;" width="103" x="179.5" y="8"/><ellipse cx="200.8" cy="24" fill="#B4A7E5" rx="11" ry="11" style="stroke: #A80036; stroke-width: 1.0;"/><path d="M196.7277,19.7651 L196.7277,17.6069 L204.1071,17.6069 L204.1071,19.7651 L201.6418,19.7651 L201.6418,27.8418 L204.1071,27.8418 L204.1071,30 L196.7277,30 L196.7277,27.8418 L199.1931,27.8418 L199.1931,19.7651 Z "/><text fill="#000000" font-family="sans-serif" font-size="12" font-style="italic" lengthAdjust="spacingAndGlyphs" textLength="57" x="216.2" y="28.5352">AbFactory</text><line style="stroke: #A80036; stroke-width: 1.5;" x1="180.5" x2="281.5" y1="40" y2="40"/><line style="stroke: #A80036; stroke-width: 1.5;" x1="180.5" x2="281.5" y1="48" y2="48"/><text fill="#000000" font-family="sans-serif" font-size="11" lengthAdjust="spacingAndGlyphs" textLength="70" x="185.5" y="62.6348">createDrink()</text><text fill="#000000" font-family="sans-serif" font-size="11" lengthAdjust="spacingAndGlyphs" textLength="91" x="185.5" y="75.5898">createHamburg()</text><rect fill="#FEFECE" filter="url(#f1)" height="48" style="stroke: #A80036; stroke-width: 1.5;" width="63" x="17.5" y="143"/><ellipse cx="32.5" cy="159" fill="#B4A7E5" rx="11" ry="11" style="stroke: #A80036; stroke-width: 1.0;"/><path d="M28.4277,154.7651 L28.4277,152.6069 L35.8071,152.6069 L35.8071,154.7651 L33.3418,154.7651 L33.3418,162.8418 L35.8071,162.8418 L35.8071,165 L28.4277,165 L28.4277,162.8418 L30.8931,162.8418 L30.8931,154.7651 Z "/><text fill="#000000" font-family="sans-serif" font-size="12" font-style="italic" lengthAdjust="spacingAndGlyphs" textLength="31" x="46.5" y="163.5352">Drink</text><line style="stroke: #A80036; stroke-width: 1.5;" x1="18.5" x2="79.5" y1="175" y2="175"/><line style="stroke: #A80036; stroke-width: 1.5;" x1="18.5" x2="79.5" y1="183" y2="183"/><rect fill="#FEFECE" filter="url(#f1)" height="48" style="stroke: #A80036; stroke-width: 1.5;" width="86" x="399" y="143"/><ellipse cx="414" cy="159" fill="#B4A7E5" rx="11" ry="11" style="stroke: #A80036; stroke-width: 1.0;"/><path d="M409.9277,154.7651 L409.9277,152.6069 L417.3071,152.6069 L417.3071,154.7651 L414.8418,154.7651 L414.8418,162.8418 L417.3071,162.8418 L417.3071,165 L409.9277,165 L409.9277,162.8418 L412.3931,162.8418 L412.3931,154.7651 Z "/><text fill="#000000" font-family="sans-serif" font-size="12" font-style="italic" lengthAdjust="spacingAndGlyphs" textLength="54" x="428" y="163.5352">Hamburg</text><line style="stroke: #A80036; stroke-width: 1.5;" x1="400" x2="484" y1="175" y2="175"/><line style="stroke: #A80036; stroke-width: 1.5;" x1="400" x2="484" y1="183" y2="183"/><rect fill="#FEFECE" filter="url(#f1)" height="48" style="stroke: #A80036; stroke-width: 1.5;" width="107" x="117.5" y="268"/><ellipse cx="132.5" cy="284" fill="#ADD1B2" rx="11" ry="11" style="stroke: #A80036; stroke-width: 1.0;"/><path d="M135.4731,289.6431 Q134.8921,289.9419 134.2529,290.0913 Q133.6138,290.2407 132.9082,290.2407 Q130.4014,290.2407 129.0815,288.5889 Q127.7617,286.937 127.7617,283.8159 Q127.7617,280.6865 129.0815,279.0347 Q130.4014,277.3828 132.9082,277.3828 Q133.6138,277.3828 134.2612,277.5322 Q134.9087,277.6816 135.4731,277.9805 L135.4731,280.7031 Q134.8423,280.1221 134.2488,279.8523 Q133.6553,279.5825 133.0244,279.5825 Q131.6797,279.5825 130.9949,280.6492 Q130.3101,281.7158 130.3101,283.8159 Q130.3101,285.9077 130.9949,286.9744 Q131.6797,288.041 133.0244,288.041 Q133.6553,288.041 134.2488,287.7712 Q134.8423,287.5015 135.4731,286.9204 Z "/><text fill="#000000" font-family="sans-serif" font-size="12" lengthAdjust="spacingAndGlyphs" textLength="75" x="146.5" y="288.5352">ChineseCoCo</text><line style="stroke: #A80036; stroke-width: 1.5;" x1="118.5" x2="223.5" y1="300" y2="300"/><line style="stroke: #A80036; stroke-width: 1.5;" x1="118.5" x2="223.5" y1="308" y2="308"/><rect fill="#FEFECE" filter="url(#f1)" height="48" style="stroke: #A80036; stroke-width: 1.5;" width="76" x="6" y="268"/><ellipse cx="21" cy="284" fill="#ADD1B2" rx="11" ry="11" style="stroke: #A80036; stroke-width: 1.0;"/><path d="M23.9731,289.6431 Q23.3921,289.9419 22.7529,290.0913 Q22.1138,290.2407 21.4082,290.2407 Q18.9014,290.2407 17.5815,288.5889 Q16.2617,286.937 16.2617,283.8159 Q16.2617,280.6865 17.5815,279.0347 Q18.9014,277.3828 21.4082,277.3828 Q22.1138,277.3828 22.7612,277.5322 Q23.4087,277.6816 23.9731,277.9805 L23.9731,280.7031 Q23.3423,280.1221 22.7488,279.8523 Q22.1553,279.5825 21.5244,279.5825 Q20.1797,279.5825 19.4949,280.6492 Q18.8101,281.7158 18.8101,283.8159 Q18.8101,285.9077 19.4949,286.9744 Q20.1797,288.041 21.5244,288.041 Q22.1553,288.041 22.7488,287.7712 Q23.3423,287.5015 23.9731,286.9204 Z "/><text fill="#000000" font-family="sans-serif" font-size="12" lengthAdjust="spacingAndGlyphs" textLength="44" x="35" y="288.5352">NYCoco</text><line style="stroke: #A80036; stroke-width: 1.5;" x1="7" x2="81" y1="300" y2="300"/><line style="stroke: #A80036; stroke-width: 1.5;" x1="7" x2="81" y1="308" y2="308"/><rect fill="#FEFECE" filter="url(#f1)" height="48" style="stroke: #A80036; stroke-width: 1.5;" width="148" x="414" y="268"/><ellipse cx="429" cy="284" fill="#ADD1B2" rx="11" ry="11" style="stroke: #A80036; stroke-width: 1.0;"/><path d="M431.9731,289.6431 Q431.3921,289.9419 430.7529,290.0913 Q430.1138,290.2407 429.4082,290.2407 Q426.9014,290.2407 425.5815,288.5889 Q424.2617,286.937 424.2617,283.8159 Q424.2617,280.6865 425.5815,279.0347 Q426.9014,277.3828 429.4082,277.3828 Q430.1138,277.3828 430.7612,277.5322 Q431.4087,277.6816 431.9731,277.9805 L431.9731,280.7031 Q431.3423,280.1221 430.7488,279.8523 Q430.1553,279.5825 429.5244,279.5825 Q428.1797,279.5825 427.4949,280.6492 Q426.8101,281.7158 426.8101,283.8159 Q426.8101,285.9077 427.4949,286.9744 Q428.1797,288.041 429.5244,288.041 Q430.1553,288.041 430.7488,287.7712 Q431.3423,287.5015 431.9731,286.9204 Z "/><text fill="#000000" font-family="sans-serif" font-size="12" lengthAdjust="spacingAndGlyphs" textLength="116" x="443" y="288.5352">ChineseBigHamburg</text><line style="stroke: #A80036; stroke-width: 1.5;" x1="415" x2="561" y1="300" y2="300"/><line style="stroke: #A80036; stroke-width: 1.5;" x1="415" x2="561" y1="308" y2="308"/><rect fill="#FEFECE" filter="url(#f1)" height="48" style="stroke: #A80036; stroke-width: 1.5;" width="119" x="259.5" y="268"/><ellipse cx="274.5" cy="284" fill="#ADD1B2" rx="11" ry="11" style="stroke: #A80036; stroke-width: 1.0;"/><path d="M277.4731,289.6431 Q276.8921,289.9419 276.2529,290.0913 Q275.6138,290.2407 274.9082,290.2407 Q272.4014,290.2407 271.0815,288.5889 Q269.7617,286.937 269.7617,283.8159 Q269.7617,280.6865 271.0815,279.0347 Q272.4014,277.3828 274.9082,277.3828 Q275.6138,277.3828 276.2612,277.5322 Q276.9087,277.6816 277.4731,277.9805 L277.4731,280.7031 Q276.8423,280.1221 276.2488,279.8523 Q275.6553,279.5825 275.0244,279.5825 Q273.6797,279.5825 272.9949,280.6492 Q272.3101,281.7158 272.3101,283.8159 Q272.3101,285.9077 272.9949,286.9744 Q273.6797,288.041 275.0244,288.041 Q275.6553,288.041 276.2488,287.7712 Q276.8423,287.5015 277.4731,286.9204 Z "/><text fill="#000000" font-family="sans-serif" font-size="12" lengthAdjust="spacingAndGlyphs" textLength="87" x="288.5" y="288.5352">NYBigHamburg</text><line style="stroke: #A80036; stroke-width: 1.5;" x1="260.5" x2="377.5" y1="300" y2="300"/><line style="stroke: #A80036; stroke-width: 1.5;" x1="260.5" x2="377.5" y1="308" y2="308"/><rect fill="#FEFECE" filter="url(#f1)" height="48" style="stroke: #A80036; stroke-width: 1.5;" width="89" x="117.5" y="143"/><ellipse cx="132.5" cy="159" fill="#ADD1B2" rx="11" ry="11" style="stroke: #A80036; stroke-width: 1.0;"/><path d="M135.4731,164.6431 Q134.8921,164.9419 134.2529,165.0913 Q133.6138,165.2407 132.9082,165.2407 Q130.4014,165.2407 129.0815,163.5889 Q127.7617,161.937 127.7617,158.8159 Q127.7617,155.6865 129.0815,154.0347 Q130.4014,152.3828 132.9082,152.3828 Q133.6138,152.3828 134.2612,152.5322 Q134.9087,152.6816 135.4731,152.9805 L135.4731,155.7031 Q134.8423,155.1221 134.2488,154.8523 Q133.6553,154.5825 133.0244,154.5825 Q131.6797,154.5825 130.9949,155.6492 Q130.3101,156.7158 130.3101,158.8159 Q130.3101,160.9077 130.9949,161.9744 Q131.6797,163.041 133.0244,163.041 Q133.6553,163.041 134.2488,162.7712 Q134.8423,162.5015 135.4731,161.9204 Z "/><text fill="#000000" font-family="sans-serif" font-size="12" lengthAdjust="spacingAndGlyphs" textLength="57" x="146.5" y="163.5352">NYFactory</text><line style="stroke: #A80036; stroke-width: 1.5;" x1="118.5" x2="205.5" y1="175" y2="175"/><line style="stroke: #A80036; stroke-width: 1.5;" x1="118.5" x2="205.5" y1="183" y2="183"/><rect fill="#FEFECE" filter="url(#f1)" height="48" style="stroke: #A80036; stroke-width: 1.5;" width="118" x="242" y="143"/><ellipse cx="257" cy="159" fill="#ADD1B2" rx="11" ry="11" style="stroke: #A80036; stroke-width: 1.0;"/><path d="M259.9731,164.6431 Q259.3921,164.9419 258.7529,165.0913 Q258.1138,165.2407 257.4082,165.2407 Q254.9014,165.2407 253.5815,163.5889 Q252.2617,161.937 252.2617,158.8159 Q252.2617,155.6865 253.5815,154.0347 Q254.9014,152.3828 257.4082,152.3828 Q258.1138,152.3828 258.7612,152.5322 Q259.4087,152.6816 259.9731,152.9805 L259.9731,155.7031 Q259.3423,155.1221 258.7488,154.8523 Q258.1553,154.5825 257.5244,154.5825 Q256.1797,154.5825 255.4949,155.6492 Q254.8101,156.7158 254.8101,158.8159 Q254.8101,160.9077 255.4949,161.9744 Q256.1797,163.041 257.5244,163.041 Q258.1553,163.041 258.7488,162.7712 Q259.3423,162.5015 259.9731,161.9204 Z "/><text fill="#000000" font-family="sans-serif" font-size="12" lengthAdjust="spacingAndGlyphs" textLength="86" x="271" y="163.5352">ChineseFactory</text><line style="stroke: #A80036; stroke-width: 1.5;" x1="243" x2="359" y1="175" y2="175"/><line style="stroke: #A80036; stroke-width: 1.5;" x1="243" x2="359" y1="183" y2="183"/><path d="M457.948,210.202 C459.321,213.853 460.686,217.4914 462,221 C467.864,236.6619 474.42,254.314 479.482,267.9737 " fill="none" style="stroke: #A80036; stroke-width: 1.0;"/><polygon fill="none" points="451.293,212.393,450.788,191.209,464.393,207.454,451.293,212.393" style="stroke: #A80036; stroke-width: 1.0;"/><path d="M430.481,210.172 C426.402,220.0545 421.019,230.017 414,238 C403.4,250.0561 389.366,259.9492 375.347,267.7865 " fill="none" style="stroke: #A80036; stroke-width: 1.0;"/><polygon fill="none" points="423.864,207.89,436.967,191.238,437.108,212.427,423.864,207.89" style="stroke: #A80036; stroke-width: 1.0;"/><path d="M200.29,99.408 C191.518,114.664 182.416,130.495 175.287,142.892 " fill="none" style="stroke: #A80036; stroke-width: 1.0;"/><polygon fill="none" points="194.26,95.853,210.298,82.004,206.397,102.831,194.26,95.853" style="stroke: #A80036; stroke-width: 1.0;"/><path d="M262.155,99.408 C271.054,114.664 280.289,130.495 287.52,142.892 " fill="none" style="stroke: #A80036; stroke-width: 1.0;"/><polygon fill="none" points="256.033,102.807,252.002,82.004,268.126,95.752,256.033,102.807" style="stroke: #A80036; stroke-width: 1.0;"/><path d="M85.9514,205.586 C96.306,216.0919 107.58,227.5044 118,238 C127.718,247.7885 138.475,258.5576 147.745,267.8171 " fill="none" style="stroke: #A80036; stroke-width: 1.0;"/><polygon fill="none" points="80.6888,210.219,71.6447,191.056,90.6648,200.396,80.6888,210.219" style="stroke: #A80036; stroke-width: 1.0;"/><path d="M47.245,211.172 C46.4677,230.2934 45.5847,252.0159 44.9362,267.9684 " fill="none" style="stroke: #A80036; stroke-width: 1.0;"/><polygon fill="none" points="40.2529,210.835,48.0595,191.135,54.2413,211.403,40.2529,210.835" style="stroke: #A80036; stroke-width: 1.0;"/><path d="M179.273,191.251 C190.857,205.825 207.049,224.3652 224,238 C236.56,248.1034 251.305,257.3611 265.382,265.2141 " fill="none" style="stroke: #A80036; stroke-width: 1.0;"/><polygon fill="#A80036" points="270.126,267.8226,264.1662,259.9817,265.7444,265.4139,260.3122,266.9921,270.126,267.8226" style="stroke: #A80036; stroke-width: 1.0;"/><text fill="#000000" font-family="sans-serif" font-size="13" lengthAdjust="spacingAndGlyphs" textLength="26" x="225" y="234.5684">生产</text><path d="M139.805,191.135 C119.862,211.923 90.5784,242.4479 69.6418,264.2717 " fill="none" style="stroke: #A80036; stroke-width: 1.0;"/><polygon fill="#A80036" points="66.0954,267.9684,75.2125,264.2431,69.5569,264.3603,69.4396,258.7047,66.0954,267.9684" style="stroke: #A80036; stroke-width: 1.0;"/><text fill="#000000" font-family="sans-serif" font-size="13" lengthAdjust="spacingAndGlyphs" textLength="26" x="112" y="234.5684">生产</text><path d="M291.158,191.089 C284.065,205.778 273.396,224.5069 260,238 C249.731,248.3435 237.044,257.4499 224.499,265.0657 " fill="none" style="stroke: #A80036; stroke-width: 1.0;"/><polygon fill="#A80036" points="219.888,267.8036,229.6688,266.6478,224.1872,265.2507,225.5842,259.7691,219.888,267.8036" style="stroke: #A80036; stroke-width: 1.0;"/><text fill="#000000" font-family="sans-serif" font-size="13" lengthAdjust="spacingAndGlyphs" textLength="26" x="274" y="234.5684">生产</text><path d="M336.173,191.135 C368.169,212.181 415.338,243.2062 448.592,265.0793 " fill="none" style="stroke: #A80036; stroke-width: 1.0;"/><polygon fill="#A80036" points="452.984,267.9684,447.6642,259.6799,448.8071,265.2201,443.2669,266.3629,452.984,267.9684" style="stroke: #A80036; stroke-width: 1.0;"/><text fill="#000000" font-family="sans-serif" font-size="13" lengthAdjust="spacingAndGlyphs" textLength="26" x="407" y="234.5684">生产</text></g></svg>