<?xml version="1.0" encoding="UTF-8" standalone="yes"?><svg xmlns="http://www.w3.org/2000/svg" xmlns:xlink="http://www.w3.org/1999/xlink" height="258px" style="width:179px;height:258px;" version="1.1" viewBox="0 0 179 258" width="179px"><defs><filter height="300%" id="f1" width="300%" x="-1" y="-1"><feGaussianBlur result="blurOut" stdDeviation="2.0"/><feColorMatrix in="blurOut" result="blurOut2" type="matrix" values="0 0 0 0 0 0 0 0 0 0 0 0 0 0 0 0 0 0 .4 0"/><feOffset dx="4.0" dy="4.0" in="blurOut2" result="blurOut3"/><feBlend in="SourceGraphic" in2="blurOut3" mode="normal"/></filter></defs><g><rect fill="#FEFECE" filter="url(#f1)" height="48" style="stroke: #A80036; stroke-width: 1.5;" width="40" x="68" y="93"/><ellipse cx="83" cy="109" fill="#ADD1B2" rx="11" ry="11" style="stroke: #A80036; stroke-width: 1.0;"/><path d="M85.9731,114.6431 Q85.3921,114.9419 84.7529,115.0913 Q84.1138,115.2407 83.4082,115.2407 Q80.9014,115.2407 79.5815,113.5889 Q78.2617,111.937 78.2617,108.8159 Q78.2617,105.6865 79.5815,104.0347 Q80.9014,102.3828 83.4082,102.3828 Q84.1138,102.3828 84.7612,102.5322 Q85.4087,102.6816 85.9731,102.9805 L85.9731,105.7031 Q85.3423,105.1221 84.7488,104.8523 Q84.1553,104.5825 83.5244,104.5825 Q82.1797,104.5825 81.4949,105.6492 Q80.8101,106.7158 80.8101,108.8159 Q80.8101,110.9077 81.4949,111.9744 Q82.1797,113.041 83.5244,113.041 Q84.1553,113.041 84.7488,112.7712 Q85.3423,112.5015 85.9731,111.9204 Z "/><text fill="#000000" font-family="sans-serif" font-size="12" lengthAdjust="spacingAndGlyphs" textLength="8" x="97" y="113.5352">A</text><line style="stroke: #A80036; stroke-width: 1.5;" x1="69" x2="107" y1="125" y2="125"/><line style="stroke: #A80036; stroke-width: 1.5;" x1="69" x2="107" y1="133" y2="133"/><rect fill="#FEFECE" filter="url(#f1)" height="48" style="stroke: #A80036; stroke-width: 1.5;" width="39" x="68.5" y="201"/><ellipse cx="83.5" cy="217" fill="#ADD1B2" rx="11" ry="11" style="stroke: #A80036; stroke-width: 1.0;"/><path d="M86.4731,222.6431 Q85.8921,222.9419 85.2529,223.0913 Q84.6138,223.2407 83.9082,223.2407 Q81.4014,223.2407 80.0815,221.5889 Q78.7617,219.937 78.7617,216.8159 Q78.7617,213.6865 80.0815,212.0347 Q81.4014,210.3828 83.9082,210.3828 Q84.6138,210.3828 85.2612,210.5322 Q85.9087,210.6816 86.4731,210.9805 L86.4731,213.7031 Q85.8423,213.1221 85.2488,212.8523 Q84.6553,212.5825 84.0244,212.5825 Q82.6797,212.5825 81.9949,213.6492 Q81.3101,214.7158 81.3101,216.8159 Q81.3101,218.9077 81.9949,219.9744 Q82.6797,221.041 84.0244,221.041 Q84.6553,221.041 85.2488,220.7712 Q85.8423,220.5015 86.4731,219.9204 Z "/><text fill="#000000" font-family="sans-serif" font-size="12" lengthAdjust="spacingAndGlyphs" textLength="7" x="97.5" y="221.5352">B</text><line style="stroke: #A80036; stroke-width: 1.5;" x1="69.5" x2="106.5" y1="233" y2="233"/><line style="stroke: #A80036; stroke-width: 1.5;" x1="69.5" x2="106.5" y1="241" y2="241"/><polygon fill="#FBFB77" filter="url(#f1)" points="6,8,6,33.3105,170,33.3105,170,18,160,8,6,8" style="stroke: #A80036; stroke-width: 1.0;"/><polygon fill="#FBFB77" points="6,8,6,33.3105,84,33.3105,88,92.731,92,33.3105,170,33.3105,170,18,160,8,6,8" style="stroke: #A80036; stroke-width: 1.0;"/><line style="stroke: #A80036; stroke-width: 1.0;" x1="160" x2="160" y1="8" y2="18"/><line style="stroke: #A80036; stroke-width: 1.0;" x1="170" x2="160" y1="18" y2="18"/><text fill="#000000" font-family="sans-serif" font-size="13" lengthAdjust="spacingAndGlyphs" textLength="143" x="12" y="25.5684">关联关系用一条直线表示</text><path d="M88,146.131 C88,163.1538 88,184.6037 88,200.6784 " fill="none" style="stroke: #A80036; stroke-width: 1.0;"/><polygon fill="#A80036" points="88,141,84,150,88,146,92,150,88,141" style="stroke: #A80036; stroke-width: 1.0;"/></g></svg>