<?xml version="1.0" encoding="UTF-8" standalone="yes"?><svg xmlns="http://www.w3.org/2000/svg" xmlns:xlink="http://www.w3.org/1999/xlink" height="276px" style="width:283px;height:276px;" version="1.1" viewBox="0 0 283 276" width="283px"><defs><filter height="300%" id="f1" width="300%" x="-1" y="-1"><feGaussianBlur result="blurOut" stdDeviation="2.0"/><feColorMatrix in="blurOut" result="blurOut2" type="matrix" values="0 0 0 0 0 0 0 0 0 0 0 0 0 0 0 0 0 0 .4 0"/><feOffset dx="4.0" dy="4.0" in="blurOut2" result="blurOut3"/><feBlend in="SourceGraphic" in2="blurOut3" mode="normal"/></filter></defs><g><rect fill="#FEFECE" filter="url(#f1)" height="48" style="stroke: #A80036; stroke-width: 1.5;" width="52" x="114" y="94"/><ellipse cx="129" cy="110" fill="#ADD1B2" rx="11" ry="11" style="stroke: #A80036; stroke-width: 1.0;"/><path d="M131.9731,115.6431 Q131.3921,115.9419 130.7529,116.0913 Q130.1138,116.2407 129.4082,116.2407 Q126.9014,116.2407 125.5815,114.5889 Q124.2617,112.937 124.2617,109.8159 Q124.2617,106.6865 125.5815,105.0347 Q126.9014,103.3828 129.4082,103.3828 Q130.1138,103.3828 130.7612,103.5322 Q131.4087,103.6816 131.9731,103.9805 L131.9731,106.7031 Q131.3423,106.1221 130.7488,105.8523 Q130.1553,105.5825 129.5244,105.5825 Q128.1797,105.5825 127.4949,106.6492 Q126.8101,107.7158 126.8101,109.8159 Q126.8101,111.9077 127.4949,112.9744 Q128.1797,114.041 129.5244,114.041 Q130.1553,114.041 130.7488,113.7712 Q131.3423,113.5015 131.9731,112.9204 Z "/><text fill="#000000" font-family="sans-serif" font-size="12" lengthAdjust="spacingAndGlyphs" textLength="20" x="143" y="114.5352">Car</text><line style="stroke: #A80036; stroke-width: 1.5;" x1="115" x2="165" y1="126" y2="126"/><line style="stroke: #A80036; stroke-width: 1.5;" x1="115" x2="165" y1="134" y2="134"/><rect fill="#FEFECE" filter="url(#f1)" height="48" style="stroke: #A80036; stroke-width: 1.5;" width="66" x="107" y="219"/><ellipse cx="122" cy="235" fill="#ADD1B2" rx="11" ry="11" style="stroke: #A80036; stroke-width: 1.0;"/><path d="M124.9731,240.6431 Q124.3921,240.9419 123.7529,241.0913 Q123.1138,241.2407 122.4082,241.2407 Q119.9014,241.2407 118.5815,239.5889 Q117.2617,237.937 117.2617,234.8159 Q117.2617,231.6865 118.5815,230.0347 Q119.9014,228.3828 122.4082,228.3828 Q123.1138,228.3828 123.7612,228.5322 Q124.4087,228.6816 124.9731,228.9805 L124.9731,231.7031 Q124.3423,231.1221 123.7488,230.8523 Q123.1553,230.5825 122.5244,230.5825 Q121.1797,230.5825 120.4949,231.6492 Q119.8101,232.7158 119.8101,234.8159 Q119.8101,236.9077 120.4949,237.9744 Q121.1797,239.041 122.5244,239.041 Q123.1553,239.041 123.7488,238.7712 Q124.3423,238.5015 124.9731,237.9204 Z "/><text fill="#000000" font-family="sans-serif" font-size="12" lengthAdjust="spacingAndGlyphs" textLength="34" x="136" y="239.5352">Wheel</text><line style="stroke: #A80036; stroke-width: 1.5;" x1="108" x2="172" y1="251" y2="251"/><line style="stroke: #A80036; stroke-width: 1.5;" x1="108" x2="172" y1="259" y2="259"/><polygon fill="#FBFB77" filter="url(#f1)" points="6,8,6,33.3105,274,33.3105,274,18,264,8,6,8" style="stroke: #A80036; stroke-width: 1.0;"/><polygon fill="#FBFB77" points="6,8,6,33.3105,136,33.3105,140,93.867,144,33.3105,274,33.3105,274,18,264,8,6,8" style="stroke: #A80036; stroke-width: 1.0;"/><line style="stroke: #A80036; stroke-width: 1.0;" x1="264" x2="264" y1="8" y2="18"/><line style="stroke: #A80036; stroke-width: 1.0;" x1="274" x2="264" y1="18" y2="18"/><text fill="#000000" font-family="sans-serif" font-size="13" lengthAdjust="spacingAndGlyphs" textLength="247" x="12" y="25.5684">组合关系用一条带实心菱形箭头的直线表示</text><path d="M140,155.214 C140,175.8329 140,201.0433 140,218.9684 " fill="none" style="stroke: #A80036; stroke-width: 1.0;"/><polygon fill="#A80036" points="140,142.135,136,148.135,140,154.135,144,148.135,140,142.135" style="stroke: #A80036; stroke-width: 1.0;"/><text fill="#000000" font-family="sans-serif" font-size="13" lengthAdjust="spacingAndGlyphs" textLength="88" x="141" y="185.5684">contains(组合)</text><text fill="#000000" font-family="sans-serif" font-size="13" lengthAdjust="spacingAndGlyphs" textLength="8" x="131.025" y="162.4522">1</text><text fill="#000000" font-family="sans-serif" font-size="13" lengthAdjust="spacingAndGlyphs" textLength="34" x="101.4313" y="208.1044">many</text></g></svg>